<svg width="147" height="147" viewBox="0 0 147 147" fill="none" xmlns="http://www.w3.org/2000/svg">
<path d="M75.8001 69.5355L110.256 50.7409V90.3773L75.8001 110.256V69.5355Z" fill="#FECB5B"/>
<path d="M75.8001 69.5355L41.3442 50.7409V90.3773L75.8001 110.256V69.5355Z" fill="#C9D6E5"/>
<path d="M75.8001 31.9465L110.256 50.7406L75.8001 69.5352L41.3442 50.7406L75.8001 31.9465Z" fill="#ED4A4B"/>
<path d="M67.3002 36.4326L65.8331 37.2349L74.37 42.1674L61.9594 49.3389L53.06 44.2017L51.6015 44.9961L60.5287 50.1516L50.7098 55.8283L52.1871 56.6227L61.9688 50.9748L74.3701 58.1358L64.9413 63.589L66.4085 64.3833L75.8001 58.9585L85.1917 64.3833L86.6589 63.589L77.2301 58.1358L89.6315 50.9748L99.4132 56.6227L100.891 55.8283L91.0716 50.1516L99.9987 44.9961L98.5402 44.2017L89.6409 49.3389L77.2303 42.1674L85.7673 37.2349L84.29 36.4406L75.7994 41.3453L67.3002 36.4326ZM75.8 43L88.2107 50.1621L75.8 57.334L63.3894 50.1621L74.964 43.4829L75.8 43Z" fill="#3C3B41"/>
<path d="M50.8034 55.818V66.8748L41.3521 61.4197V63.067L50.8034 68.5221V83.2436L41.3521 77.7885V79.4353L50.8034 84.8904V95.8737L52.2247 96.6924V85.7091L64.9801 93.0743V104.049L66.4014 104.867V93.893L75.8527 99.3481V97.7028L66.4014 92.2477V77.5262L75.8527 82.9813V81.3355L66.4014 75.8809V64.3159L64.9801 63.5409V75.0597L52.2247 67.6945V56.591L50.8034 55.818ZM52.2247 69.3388L64.9801 76.7045V91.4255L52.2247 84.0603V72.2002V69.3388Z" fill="#3C3B41"/>
<path d="M100.805 55.818V66.8748L110.256 61.4197V63.067L100.805 68.5221V83.2436L110.256 77.7885V79.4353L100.805 84.8904V95.8737L99.3836 96.6924V85.7091L86.6281 93.0743V104.049L85.2068 104.867V93.893L75.7555 99.3481V97.7028L85.2068 92.2477V77.5262L75.7555 82.9813V81.3355L85.2068 75.8809V64.3159L86.6281 63.5409V75.0597L99.3836 67.6945V56.591L100.805 55.818ZM99.3836 69.3388L86.6281 76.7045V91.4255L99.3836 84.0603V72.2002V69.3388Z" fill="#3C3B41"/>
</svg>
