<svg width="89" height="89" viewBox="0 0 89 89" fill="none" xmlns="http://www.w3.org/2000/svg">
<path fill-rule="evenodd" clip-rule="evenodd" d="M71.572 19.6091C71.3143 19.6162 71.0681 19.7169 70.8791 19.8922C70.6902 20.0675 70.5714 20.3055 70.545 20.5619C70.5186 20.8182 70.5864 21.0756 70.7357 21.2857C70.8849 21.4958 71.1055 21.6444 71.3563 21.7039L77.6489 23.3382C77.786 23.3806 77.9302 23.3948 78.0729 23.3799C78.2156 23.365 78.3538 23.3211 78.4792 23.2513C78.6045 23.1816 78.7145 23.0871 78.8023 22.9737C78.8902 22.8602 78.9541 22.7301 78.9903 22.5913C79.0265 22.4524 79.0341 22.3077 79.0128 22.1659C78.9915 22.024 78.9417 21.8879 78.8663 21.7658C78.791 21.6437 78.6917 21.5382 78.5744 21.4555C78.4571 21.3728 78.3243 21.3148 78.184 21.2849L71.8872 19.6464C71.7847 19.618 71.6784 19.6049 71.572 19.6081V19.6091ZM67.6936 20.4926C67.4543 20.4966 67.2233 20.5815 67.0382 20.7332L59.9575 26.3995C59.7374 26.5755 59.5963 26.8316 59.5652 27.1116C59.5341 27.3917 59.6155 27.6727 59.7915 27.8928C59.9675 28.1128 60.2237 28.2539 60.5038 28.285C60.7838 28.3161 61.0648 28.2347 61.2848 28.0587L68.3656 22.3924C68.5414 22.2555 68.6698 22.0666 68.7323 21.8527C68.7949 21.6387 68.7886 21.4105 68.7143 21.2004C68.6399 20.9902 68.5013 20.8089 68.3182 20.6819C68.135 20.5549 67.9164 20.4885 67.6936 20.4926ZM45.0826 27.619C44.9418 27.617 44.8021 27.643 44.6716 27.6955C44.541 27.7479 44.4221 27.8258 44.3219 27.9246C44.2217 28.0234 44.1421 28.1412 44.0878 28.271C44.0335 28.4008 44.0055 28.5402 44.0055 28.6809C44.0055 28.8216 44.0335 28.9609 44.0878 29.0908C44.1421 29.2206 44.2217 29.3383 44.3219 29.4371C44.4221 29.5359 44.541 29.6138 44.6716 29.6663C44.8021 29.7188 44.9418 29.7448 45.0826 29.7428H56.6805C56.8212 29.7448 56.9609 29.7188 57.0915 29.6663C57.2221 29.6138 57.3409 29.5359 57.4411 29.4371C57.5414 29.3383 57.6209 29.2206 57.6752 29.0908C57.7296 28.9609 57.7575 28.8216 57.7575 28.6809C57.7575 28.5402 57.7296 28.4008 57.6752 28.271C57.6209 28.1412 57.5414 28.0234 57.4411 27.9246C57.3409 27.8258 57.2221 27.7479 57.0915 27.6955C56.9609 27.643 56.8212 27.617 56.6805 27.619H45.0826ZM41.424 29.2533C41.2697 29.2505 41.1167 29.2815 40.9756 29.3438C40.8345 29.4061 40.7086 29.4983 40.6068 29.6142L34.0197 36.9314C33.9263 37.0351 33.8542 37.1562 33.8076 37.2878C33.761 37.4195 33.7407 37.559 33.748 37.6985C33.7554 37.8379 33.7901 37.9746 33.8502 38.1006C33.9103 38.2266 33.9947 38.3395 34.0984 38.4329C34.2022 38.5264 34.3234 38.5984 34.455 38.645C34.5867 38.6916 34.7262 38.712 34.8656 38.7046C35.0051 38.6973 35.1417 38.6626 35.2677 38.6025C35.3938 38.5424 35.5067 38.4579 35.6001 38.3541L42.1872 31.037C42.3267 30.8864 42.4195 30.6987 42.4545 30.4964C42.4895 30.2942 42.4652 30.0862 42.3845 29.8976C42.3037 29.7089 42.17 29.5475 41.9996 29.4332C41.8291 29.3189 41.6292 29.2564 41.424 29.2533ZM12.0807 36.1059C11.8505 36.1018 11.6253 36.1725 11.4389 36.3076C11.2525 36.4426 11.115 36.6347 11.0472 36.8546C10.9793 37.0746 10.9848 37.3105 11.0627 37.5271C11.1406 37.7437 11.2868 37.9292 11.4792 38.0555L19.0038 43.2032C19.1183 43.29 19.2493 43.3526 19.3888 43.3873C19.5283 43.422 19.6734 43.4279 19.8153 43.4049C19.9572 43.3819 20.0929 43.3303 20.2143 43.2532C20.3356 43.1762 20.4401 43.0753 20.5213 42.9567C20.6025 42.8381 20.6588 42.7044 20.6868 42.5634C20.7147 42.4224 20.7138 42.277 20.684 42.1364C20.6542 41.9958 20.5962 41.8627 20.5134 41.7452C20.4306 41.6276 20.3249 41.5282 20.2026 41.4527L12.678 36.3008C12.5031 36.1771 12.2949 36.1091 12.0807 36.1059ZM31.2447 38.9971C31.1145 38.9956 30.9851 39.0182 30.863 39.0635L23.5832 41.7099C23.4482 41.7545 23.3236 41.8257 23.2166 41.9194C23.1097 42.013 23.0226 42.1272 22.9606 42.2551C22.8986 42.383 22.8629 42.522 22.8556 42.664C22.8483 42.8059 22.8696 42.948 22.9182 43.0816C22.9668 43.2152 23.0417 43.3376 23.1385 43.4417C23.2353 43.5458 23.3521 43.6293 23.4818 43.6875C23.6115 43.7456 23.7515 43.777 23.8937 43.78C24.0358 43.7831 24.1771 43.7577 24.3091 43.7051L31.5889 41.0587C31.8232 40.9746 32.0206 40.8111 32.1465 40.5964C32.2724 40.3817 32.3189 40.1297 32.2779 39.8842C32.2369 39.6388 32.111 39.4153 31.9222 39.2532C31.7333 39.0911 31.4935 39.0004 31.2447 38.9971Z" fill="#F8B84E"/>
<path d="M21.6378 40.3618C19.891 40.3618 18.4521 41.8007 18.4521 43.5475C18.4521 45.2943 19.891 46.7332 21.6378 46.7332C23.3846 46.7332 24.8235 45.2943 24.8235 43.5475C24.8235 41.8007 23.3846 40.3618 21.6378 40.3618ZM21.6378 42.4856C22.2368 42.4856 22.6997 42.9486 22.6997 43.5475C22.6997 44.1466 22.2368 44.6094 21.6378 44.6094C21.0387 44.6094 20.5759 44.1466 20.5759 43.5475C20.5759 42.9486 21.0387 42.4856 21.6378 42.4856ZM33.3187 36.1142C31.5719 36.1142 30.133 37.5531 30.133 39.2999C30.133 41.0467 31.5719 42.4856 33.3187 42.4856C35.0655 42.4856 36.5044 41.0467 36.5044 39.2999C36.5044 37.5531 35.0655 36.1142 33.3187 36.1142ZM33.3187 38.238C33.9177 38.238 34.3806 38.701 34.3806 39.2999C34.3806 39.899 33.9177 40.3618 33.3187 40.3618C32.7196 40.3618 32.2568 39.899 32.2568 39.2999C32.2568 38.701 32.7196 38.238 33.3187 38.238ZM42.8758 25.4952C41.129 25.4952 39.6901 26.9341 39.6901 28.6809C39.6901 30.4277 41.129 31.8666 42.8758 31.8666C44.6226 31.8666 46.0615 30.4277 46.0615 28.6809C46.0615 26.9341 44.6226 25.4952 42.8758 25.4952ZM42.8758 27.619C43.4749 27.619 43.9377 28.082 43.9377 28.6809C43.9377 29.28 43.4749 29.7428 42.8758 29.7428C42.2768 29.7428 41.8139 29.28 41.8139 28.6809C41.8139 28.082 42.2768 27.619 42.8758 27.619ZM58.8043 25.4952C57.0575 25.4952 55.6186 26.9341 55.6186 28.6809C55.6186 30.4277 57.0575 31.8666 58.8043 31.8666C60.5511 31.8666 61.99 30.4277 61.99 28.6809C61.99 26.9341 60.5511 25.4952 58.8043 25.4952ZM58.8043 27.619C59.4034 27.619 59.8662 28.082 59.8662 28.6809C59.8662 29.28 59.4034 29.7428 58.8043 29.7428C58.2053 29.7428 57.7424 29.28 57.7424 28.6809C57.7424 28.082 58.2053 27.619 58.8043 27.619ZM69.4233 17C67.6765 17 66.2376 18.4389 66.2376 20.1857C66.2376 21.9325 67.6765 23.3714 69.4233 23.3714C71.1702 23.3714 72.609 21.9325 72.609 20.1857C72.609 18.4389 71.1702 17 69.4233 17ZM69.4233 19.1238C70.0224 19.1238 70.4852 19.5868 70.4852 20.1857C70.4852 20.7848 70.0224 21.2476 69.4233 21.2476C68.8243 21.2476 68.3614 20.7848 68.3614 20.1857C68.3614 19.5868 68.8243 19.1238 69.4233 19.1238Z" fill="#F8B84E"/>
<path fill-rule="evenodd" clip-rule="evenodd" d="M77.9475 27.6064C77.7749 27.6036 77.6043 27.6429 77.4503 27.721C77.2964 27.799 77.1638 27.9135 77.064 28.0544L71.1572 36.085C71.0663 36.1966 70.999 36.3254 70.9595 36.4638C70.9199 36.6021 70.9089 36.7473 70.927 36.89C70.9452 37.0327 70.9921 37.1701 71.0651 37.2942C71.138 37.4182 71.2354 37.5262 71.3513 37.6115C71.4672 37.6967 71.5993 37.7575 71.7394 37.7901C71.8795 37.8228 72.0249 37.8267 72.1665 37.8015C72.3082 37.7763 72.4433 37.7226 72.5635 37.6436C72.6838 37.5647 72.7868 37.4619 72.8662 37.3419L78.773 29.3112C78.8918 29.1551 78.9649 28.9693 78.9845 28.7741C79.004 28.5789 78.9691 28.3821 78.8836 28.2055C78.7981 28.029 78.6654 27.8796 78.5002 27.7739C78.3349 27.6681 78.1437 27.6101 77.9475 27.6064ZM68.8467 38.69C68.5709 38.6867 68.3046 38.7908 68.1042 38.9804L58.7047 47.6C58.5963 47.6927 58.5077 47.8063 58.4442 47.9339C58.3806 48.0616 58.3434 48.2007 58.3348 48.343C58.3262 48.4854 58.3463 48.6278 58.394 48.7622C58.4417 48.8966 58.516 49.0201 58.6124 49.1252C58.7088 49.2303 58.8254 49.3148 58.9552 49.3738C59.085 49.4328 59.2254 49.4651 59.368 49.4687C59.5105 49.4723 59.6523 49.4472 59.785 49.3948C59.9176 49.3424 60.0383 49.2639 60.14 49.1638L69.5394 40.5442C69.6991 40.4017 69.812 40.2144 69.8633 40.0067C69.9147 39.799 69.9021 39.5806 69.8272 39.3801C69.7523 39.1797 69.6186 39.0066 69.4437 38.8834C69.2687 38.7602 69.0607 38.6929 68.8467 38.69ZM49.0688 43.6842C48.8389 43.6943 48.6184 43.7786 48.4406 43.9248C48.2628 44.071 48.1373 44.2712 48.083 44.4949C48.0287 44.7186 48.0486 44.9537 48.1396 45.1651C48.2306 45.3765 48.3879 45.5527 48.5876 45.667L55.237 49.6574C55.3565 49.7293 55.4891 49.777 55.6271 49.7977C55.765 49.8184 55.9058 49.8117 56.0411 49.778C56.1765 49.7443 56.304 49.6841 56.4161 49.6012C56.5283 49.5182 56.6231 49.414 56.695 49.2945C56.7669 49.1749 56.8146 49.0425 56.8352 48.9046C56.8559 48.7666 56.8492 48.6257 56.8155 48.4903C56.7818 48.3549 56.7217 48.2276 56.6388 48.1154C56.5558 48.0032 56.4516 47.9083 56.332 47.8364L49.6786 43.846C49.4964 43.7317 49.2837 43.6756 49.0688 43.6848V43.6842ZM45.5637 44.0161C45.2881 44.0238 45.0263 44.1383 44.8336 44.3355L37.5289 51.6402C37.4269 51.738 37.3453 51.8553 37.2891 51.985C37.2329 52.1147 37.2032 52.2543 37.2017 52.3957C37.2002 52.537 37.2269 52.6775 37.2803 52.8084C37.3337 52.9393 37.4128 53.0582 37.5127 53.1581C37.6127 53.2581 37.7316 53.337 37.8625 53.3904C37.9934 53.4438 38.1337 53.4705 38.275 53.469C38.4164 53.4675 38.5561 53.4378 38.6858 53.3816C38.8155 53.3254 38.9327 53.2439 39.0305 53.1418L46.3352 45.8371C46.488 45.6878 46.5922 45.4961 46.6342 45.2867C46.6763 45.0773 46.6542 44.8601 46.5709 44.6634C46.4876 44.4668 46.3469 44.2998 46.1672 44.1843C45.9875 44.0689 45.7772 44.0102 45.5637 44.0161ZM12.1014 50.9724C11.8719 50.9651 11.6462 51.0322 11.4582 51.1639C11.2702 51.2957 11.1299 51.485 11.0584 51.7032C10.9869 51.9214 10.9881 52.1569 11.0617 52.3744C11.1353 52.5919 11.2774 52.7796 11.4667 52.9095L19.0452 58.2937C19.2752 58.4565 19.5603 58.5213 19.8381 58.4739C20.1158 58.4264 20.3633 58.2706 20.5261 58.0406C20.6889 57.8107 20.7537 57.5256 20.7063 57.2478C20.6588 56.9701 20.503 56.7226 20.273 56.5598L12.6946 51.1798C12.5224 51.0521 12.3156 50.9795 12.1014 50.9716V50.9724ZM34.3723 53.7101C34.2769 53.7108 34.182 53.7245 34.0902 53.7505L23.6579 56.733C23.5198 56.7678 23.3902 56.8299 23.2767 56.9157C23.1632 57.0016 23.0681 57.1095 22.9971 57.2328C22.9261 57.3562 22.8806 57.4926 22.8633 57.6339C22.8461 57.7752 22.8574 57.9183 22.8966 58.0552C22.9358 58.192 23.0021 58.3196 23.0916 58.4303C23.1811 58.541 23.2919 58.6326 23.4175 58.6997C23.5431 58.7667 23.6808 58.8078 23.8226 58.8205C23.9644 58.8332 24.1072 58.8171 24.2427 58.7735L34.6751 55.7955C34.9253 55.7274 35.1419 55.5701 35.2841 55.3532C35.4263 55.1364 35.4842 54.8749 35.447 54.6182C35.4097 54.3616 35.2799 54.1275 35.0819 53.96C34.8839 53.7925 34.6315 53.7032 34.3723 53.709V53.7101Z" fill="#25B39E"/>
<path d="M21.6378 55.2284C19.891 55.2284 18.4521 56.6672 18.4521 58.4141C18.4521 60.1609 19.891 61.5998 21.6378 61.5998C23.3846 61.5998 24.8235 60.1609 24.8235 58.4141C24.8235 56.6672 23.3846 55.2284 21.6378 55.2284ZM21.6378 57.3522C22.2368 57.3522 22.6997 57.8151 22.6997 58.4141C22.6997 59.0132 22.2368 59.476 21.6378 59.476C21.0387 59.476 20.5759 59.0132 20.5759 58.4141C20.5759 57.8151 21.0387 57.3522 21.6378 57.3522ZM36.5044 50.9808C34.7576 50.9808 33.3187 52.4196 33.3187 54.1665C33.3187 55.9133 34.7576 57.3522 36.5044 57.3522C38.2512 57.3522 39.6901 55.9133 39.6901 54.1665C39.6901 52.4196 38.2512 50.9808 36.5044 50.9808ZM36.5044 53.1046C37.1034 53.1046 37.5663 53.5675 37.5663 54.1665C37.5663 54.7656 37.1034 55.2284 36.5044 55.2284C35.9053 55.2284 35.4425 54.7656 35.4425 54.1665C35.4425 53.5675 35.9053 53.1046 36.5044 53.1046ZM47.1234 40.3617C45.3766 40.3617 43.9377 41.8006 43.9377 43.5475C43.9377 45.2943 45.3766 46.7332 47.1234 46.7332C48.8702 46.7332 50.3091 45.2943 50.3091 43.5475C50.3091 41.8006 48.8702 40.3617 47.1234 40.3617ZM47.1234 42.4856C47.7225 42.4856 48.1853 42.9485 48.1853 43.5475C48.1853 44.1466 47.7225 44.6094 47.1234 44.6094C46.5244 44.6094 46.0615 44.1466 46.0615 43.5475C46.0615 42.9485 46.5244 42.4856 47.1234 42.4856ZM57.7424 46.7332C55.9956 46.7332 54.5567 48.172 54.5567 49.9189C54.5567 51.6657 55.9956 53.1046 57.7424 53.1046C59.4892 53.1046 60.9281 51.6657 60.9281 49.9189C60.9281 48.172 59.4892 46.7332 57.7424 46.7332ZM57.7424 48.857C58.3415 48.857 58.8043 49.3199 58.8043 49.9189C58.8043 50.518 58.3415 50.9808 57.7424 50.9808C57.1434 50.9808 56.6805 50.518 56.6805 49.9189C56.6805 49.3199 57.1434 48.857 57.7424 48.857ZM70.4852 35.0522C68.7384 35.0522 67.2995 36.4911 67.2995 38.2379C67.2995 39.9848 68.7384 41.4236 70.4852 41.4236C72.2321 41.4236 73.6709 39.9848 73.6709 38.2379C73.6709 36.4911 72.2321 35.0522 70.4852 35.0522ZM70.4852 37.176C71.0843 37.176 71.5471 37.639 71.5471 38.2379C71.5471 38.8371 71.0843 39.2998 70.4852 39.2998C69.8862 39.2998 69.4233 38.8371 69.4233 38.2379C69.4233 37.639 69.8862 37.176 70.4852 37.176Z" fill="#25B39E"/>
<path fill-rule="evenodd" clip-rule="evenodd" d="M71.4226 50.6863C71.2202 50.7017 71.0264 50.7749 70.8643 50.8971C70.7021 51.0192 70.5783 51.1851 70.5076 51.3754C70.4369 51.5657 70.4222 51.7722 70.4653 51.9706C70.5084 52.169 70.6074 52.351 70.7507 52.4948L77.1511 59.1525C77.2478 59.253 77.3633 59.3336 77.4911 59.3894C77.6189 59.4453 77.7565 59.4754 77.8959 59.4781C78.0354 59.4808 78.174 59.4558 78.3038 59.405C78.4337 59.3541 78.5522 59.2782 78.6527 59.1815C78.7533 59.0848 78.8337 58.9692 78.8896 58.8414C78.9454 58.7136 78.9755 58.5761 78.9782 58.4367C78.9809 58.2972 78.9561 58.1587 78.9053 58.0289C78.8544 57.899 78.7784 57.7804 78.6817 57.6799L72.2813 51.0223C72.1726 50.9054 72.039 50.8145 71.8903 50.7563C71.7417 50.6981 71.5818 50.6742 71.4226 50.6863ZM67.9424 52.5985C67.667 52.617 67.4096 52.742 67.2248 52.947L58.4558 62.446C58.3611 62.5484 58.2874 62.6685 58.239 62.7994C58.1906 62.9303 58.1685 63.0696 58.1739 63.209C58.1793 63.3484 58.2121 63.4854 58.2704 63.6121C58.3288 63.7389 58.4115 63.8528 58.5139 63.9476C58.6163 64.0424 58.7364 64.1162 58.8673 64.1646C58.9982 64.213 59.1373 64.2351 59.2767 64.2297C59.4162 64.2243 59.5532 64.1916 59.6799 64.1332C59.8067 64.0749 59.9207 63.9919 60.0155 63.8895L68.7845 54.3905C68.9322 54.2355 69.0296 54.0395 69.0639 53.8282C69.0982 53.6169 69.0678 53.4 68.9768 53.2062C68.8857 53.0125 68.7383 52.8509 68.5537 52.7424C68.3691 52.634 68.156 52.5838 67.9424 52.5985ZM12.0309 59.4677C11.8193 59.4747 11.6146 59.5447 11.4431 59.6689C11.2717 59.7931 11.1412 59.9657 11.0686 60.1646C10.9959 60.3634 10.9843 60.5795 11.0353 60.785C11.0863 60.9905 11.1975 61.176 11.3547 61.3177L19.0867 68.5354C19.293 68.7278 19.5673 68.8305 19.8493 68.8208C20.1313 68.811 20.3978 68.6898 20.5904 68.4835C20.7829 68.2772 20.8855 68.0028 20.8758 67.7208C20.8661 67.4388 20.7448 67.1724 20.5385 66.9798L12.8024 59.7622C12.7 59.6641 12.579 59.5875 12.4464 59.5369C12.3139 59.4863 12.1726 59.4628 12.0309 59.4677ZM49.1186 60.2766C48.8708 60.2774 48.6312 60.3648 48.4411 60.5237C48.251 60.6825 48.1225 60.903 48.0777 61.1466C48.0329 61.3903 48.0747 61.6419 48.1958 61.858C48.317 62.0741 48.5099 62.241 48.7411 62.3299L55.3199 64.9597C55.4505 65.0183 55.5916 65.0499 55.7347 65.0525C55.8778 65.0552 56.02 65.029 56.1526 64.9753C56.2853 64.9216 56.4058 64.8416 56.5068 64.7401C56.6078 64.6387 56.6873 64.5181 56.7404 64.3852C56.7936 64.2523 56.8193 64.1099 56.8161 63.9668C56.8129 63.8237 56.7808 63.6829 56.7217 63.5525C56.6627 63.4221 56.5778 63.305 56.4724 63.2082C56.3669 63.1115 56.243 63.0371 56.1081 62.9894L49.5292 60.3595C49.3992 60.3049 49.2596 60.2767 49.1186 60.2766ZM45.4061 60.8324C45.1682 60.8374 44.9388 60.9221 44.7548 61.073L37.5538 66.8347C37.4382 66.9192 37.341 67.0263 37.2678 67.1494C37.1947 67.2725 37.1472 67.409 37.1282 67.551C37.1092 67.6929 37.1191 67.8374 37.1573 67.9754C37.1955 68.1134 37.2613 68.2422 37.3505 68.3541C37.4398 68.4661 37.5508 68.5587 37.6769 68.6266C37.8029 68.6946 37.9414 68.7364 38.084 68.7495C38.2266 68.7626 38.3704 68.7465 38.5066 68.7026C38.6429 68.6586 38.7689 68.5877 38.8771 68.4939L46.0781 62.7322C46.2539 62.5953 46.3823 62.4064 46.4449 62.1925C46.5074 61.9785 46.5011 61.7503 46.4268 61.5402C46.3524 61.33 46.2139 61.1484 46.0307 61.0214C45.8475 60.8944 45.629 60.8283 45.4061 60.8324ZM23.8279 67.9712C23.6872 67.9692 23.5475 67.9952 23.4169 68.0477C23.2863 68.1002 23.1675 68.1781 23.0673 68.2769C22.9671 68.3757 22.8875 68.4934 22.8332 68.6232C22.7789 68.7531 22.7509 68.8924 22.7509 69.0331C22.7509 69.1738 22.7789 69.3132 22.8332 69.443C22.8875 69.5728 22.9671 69.6906 23.0673 69.7894C23.1675 69.8882 23.2863 69.9661 23.4169 70.0185C23.5475 70.071 23.6872 70.097 23.8279 70.095H34.3806C34.5213 70.097 34.661 70.071 34.7916 70.0185C34.9221 69.9661 35.041 69.8882 35.1412 69.7894C35.2414 69.6906 35.321 69.5728 35.3753 69.443C35.4296 69.3132 35.4576 69.1738 35.4576 69.0331C35.4576 68.8924 35.4296 68.7531 35.3753 68.6232C35.321 68.4934 35.2414 68.3757 35.1412 68.2769C35.041 68.1781 34.9221 68.1002 34.7916 68.0477C34.661 67.9952 34.5213 67.9692 34.3806 67.9712H23.8279Z" fill="#F05542"/>
<path d="M21.6378 65.8474C19.891 65.8474 18.4521 67.2863 18.4521 69.0331C18.4521 70.7799 19.891 72.2188 21.6378 72.2188C23.3846 72.2188 24.8235 70.7799 24.8235 69.0331C24.8235 67.2863 23.3846 65.8474 21.6378 65.8474ZM21.6378 67.9712C22.2368 67.9712 22.6997 68.4342 22.6997 69.0331C22.6997 69.6322 22.2368 70.095 21.6378 70.095C21.0387 70.095 20.5759 69.6322 20.5759 69.0331C20.5759 68.4342 21.0387 67.9712 21.6378 67.9712ZM36.5044 65.8474C34.7576 65.8474 33.3187 67.2863 33.3187 69.0331C33.3187 70.7799 34.7576 72.2188 36.5044 72.2188C38.2512 72.2188 39.6901 70.7799 39.6901 69.0331C39.6901 67.2863 38.2512 65.8474 36.5044 65.8474ZM36.5044 67.9712C37.1034 67.9712 37.5663 68.4342 37.5663 69.0331C37.5663 69.6322 37.1034 70.095 36.5044 70.095C35.9053 70.095 35.4425 69.6322 35.4425 69.0331C35.4425 68.4342 35.9053 67.9712 36.5044 67.9712ZM47.1234 57.3522C45.3766 57.3522 43.9377 58.7911 43.9377 60.5379C43.9377 62.2847 45.3766 63.7236 47.1234 63.7236C48.8702 63.7236 50.3091 62.2847 50.3091 60.5379C50.3091 58.7911 48.8702 57.3522 47.1234 57.3522ZM47.1234 59.476C47.7225 59.476 48.1853 59.939 48.1853 60.5379C48.1853 61.137 47.7225 61.5998 47.1234 61.5998C46.5244 61.5998 46.0615 61.137 46.0615 60.5379C46.0615 59.939 46.5244 59.476 47.1234 59.476ZM57.7424 61.5998C55.9956 61.5998 54.5567 63.0387 54.5567 64.7855C54.5567 66.5323 55.9956 67.9712 57.7424 67.9712C59.4892 67.9712 60.9281 66.5323 60.9281 64.7855C60.9281 63.0387 59.4892 61.5998 57.7424 61.5998ZM57.7424 63.7236C58.3415 63.7236 58.8043 64.1866 58.8043 64.7855C58.8043 65.3846 58.3415 65.8474 57.7424 65.8474C57.1434 65.8474 56.6805 65.3846 56.6805 64.7855C56.6805 64.1866 57.1434 63.7236 57.7424 63.7236ZM69.4233 48.857C67.6765 48.857 66.2376 50.2959 66.2376 52.0427C66.2376 53.7895 67.6765 55.2284 69.4233 55.2284C71.1702 55.2284 72.609 53.7895 72.609 52.0427C72.609 50.2959 71.1702 48.857 69.4233 48.857ZM69.4233 50.9808C70.0224 50.9808 70.4852 51.4438 70.4852 52.0427C70.4852 52.6418 70.0224 53.1046 69.4233 53.1046C68.8243 53.1046 68.3614 52.6418 68.3614 52.0427C68.3614 51.4438 68.8243 50.9808 69.4233 50.9808Z" fill="#F05542"/>
</svg>
